# 3ds Max Wavefront OBJ Exporter v0.99 - (c)2007 guruware
# File Created: 13.02.2023 16:55:25

mtllib 1piano5.mtl

#
# object Plane001
#

v  -1.738189 0.000000 -2.478346
v  -1.738189 0.000000 2.478346
v  1.738189 0.000000 2.478346
v  1.738189 0.000000 -2.478346
# 4 vertices

vn 0.000000 1.000000 -0.000000
# 1 vertex normals

vt 0.000000 1.000000 0.000000
vt 0.000000 0.000000 0.000000
vt 1.000000 0.000000 0.000000
vt 1.000000 1.000000 0.000000
# 4 texture coords

o Plane001
g Plane001
usemtl Material__26
s 1
f 1/1/1 2/2/1 3/3/1 4/4/1 
# 1 polygons

